HIERARCHY
ROOT ui
{
	 OFFSET 0 0 0
	 CHANNELS 3 XPosition YPosition Z Position
	 EndSite
	 {
	 OFFSET 0 -1 0
	 }
}
ROOT li
{
	 OFFSET 0 0 0
	 CHANNELS 3 XPosition YPosition Z Position
	 EndSite
	 {
	 OFFSET 0 -1 0
	 }
}
ROOT ul
{
	 OFFSET 0 0 0
	 CHANNELS 3 XPosition YPosition Z Position
	 EndSite
	 {
	 OFFSET 0 -1 0
	 }
}
ROOT ll
{
	 OFFSET 0 0 0
	 CHANNELS 3 XPosition YPosition Z Position
	 EndSite
	 {
	 OFFSET 0 -1 0
	 }
}
ROOT tt
{
	 OFFSET 0 0 0
	 CHANNELS 3 XPosition YPosition Z Position
	 EndSite
	 {
	 OFFSET 0 -1 0
	 }
}
ROOT tb
{
	 OFFSET 0 0 0
	 CHANNELS 3 XPosition YPosition Z Position
	 EndSite
	 {
	 OFFSET 0 -1 0
	 }
}
ROOT td
{
	 OFFSET 0 0 0
	 CHANNELS 3 XPosition YPosition Z Position
	 EndSite
	 {
	 OFFSET 0 -1 0
	 }
}
ROOT v
{
	 OFFSET 0 0 0
	 CHANNELS 3 XPosition YPosition Z Position
	 EndSite
	 {
	 OFFSET 0 -1 0
	 }
}
ROOT bn
{
	 OFFSET 0 0 0
	 CHANNELS 3 XPosition YPosition Z Position
	 EndSite
	 {
	 OFFSET 0 -1 0
	 }
}
MOTION
Frames: 29
Frame Time: 0.002
-0.0029923920631408692	0.0010411750078201294	0		0.5727950439453126	-2.403176513671875	0		-1.0206826782226563	0.286856689453125	0		-0.530066162109375	-2.708111328125	0		2.10386962890625	-0.2176558837890625	0		3.66547412109375	0.06716282653808593	0		4.93139990234375	0.18154608154296875	0		5.8586123046875	0.330181884765625	0		-0.17892710876464843	5.9394833984375	0		
-0.007809560775756836	0.00608556604385376	0		0.51212109375	-2.388265625	0		-1.09455322265625	0.28897293090820314	0		-0.6056611328125	-2.687966796875	0		2.096835205078125	-0.22658148193359376	0		3.62841259765625	0.05670071792602539	0		4.93636474609375	0.17243077087402345	0		5.8586875	0.330112548828125	0		-0.29897100830078127	5.9303134765625	0		
0.0021506409645080564	-0.00410334587097168	0		0.5251649780273437	-2.392503662109375	0		-1.0893741455078125	0.29286398315429685	0		-0.5855416870117187	-2.68731005859375	0		2.089812255859375	-0.2355147705078125	0		3.61940625	0.04879254150390625	0		4.9165	0.17368719482421874	0		5.871451171875	0.3053132629394531	0		-0.31578347778320315	5.93354296875	0		
0.006342655181884766	-2.01213002204895E-4	0		0.5064699401855469	-2.38024853515625	0		-1.0811343994140625	0.2997100830078125	0		-0.5742420654296875	-2.675513916015625	0		2.089941162109375	-0.23556227111816405	0		3.642720458984375	0.06037774658203125	0		4.90175732421875	0.18185498046875	0		5.8673759765625	0.3226514587402344	0		-0.28056051635742185	5.9369658203125	0		
0.004613486766815186	0.007795323848724365	0		0.5755912475585937	-2.38135693359375	0		-1.0151179809570312	0.2906605224609375	0		-0.580911865234375	-2.662436279296875	0		2.074808349609375	-0.25337547302246094	0		3.615591064453125	0.042739883422851566	0		4.90370263671875	0.16875741577148437	0		5.86747998046875	0.32252142333984374	0		-0.298478759765625	5.93021435546875	0		
0.0025908019542694094	-0.0042020721435546875	0		0.5197600708007812	-2.379521240234375	0		-1.100786865234375	0.3019723815917969	0		-0.579736328125	-2.660477783203125	0		2.055785888671875	-0.26512347412109377	0		3.58268115234375	0.03819757461547851	0		4.88386962890625	0.16900347900390625	0		5.8675966796875	0.32239743041992186	0		-0.16396337890625	5.94910302734375	0		
-0.0021504559516906737	8.50180983543396E-4	0		0.5629677734375	-2.377217529296875	0		-1.02069189453125	0.295711669921875	0		-0.5863843994140625	-2.648391845703125	0		2.042935302734375	-0.26695831298828127	0		3.57876904296875	0.03221432113647461	0		4.87585009765625	0.15607546997070312	0		5.86772412109375	0.322293701171875	0		-0.1637475128173828	5.9490791015625	0		
-0.001953305959701538	8.317000269889832E-4	0		0.49822512817382814	-2.372228759765625	0		-1.0885474853515624	0.2927547607421875	0		-0.5831364135742187	-2.644455078125	0		2.0359923095703123	-0.2758753662109375	0		3.56396826171875	0.03241413497924805	0		4.85605029296875	0.15634762573242186	0		5.86786474609375	0.32221939086914064	0		-0.29685159301757813	5.929130859375	0		
-0.0017397680282592773	8.208069801330566E-4	0		0.5284611206054688	-2.370707275390625	0		-1.0942703857421876	0.29683892822265623	0		-0.6097542114257812	-2.63304638671875	0		2.0262530517578123	-0.2727354736328125	0		3.560089111328125	0.0264586238861084	0		4.85626416015625	0.15632649230957033	0		5.86801708984375	0.3221789855957031	0		-0.3155455322265625	5.93441552734375	0		
0.005598134994506836	0.007708879947662353	0		0.5120044555664063	-2.350447509765625	0		-1.0259710693359374	0.30077886962890626	0		-0.58237158203125	-2.6234697265625	0		2.010376220703125	-0.2794878234863281	0		3.565194091796875	0.01838026809692383	0		4.84649560546875	0.15648057556152345	0		5.868181640625	0.322177001953125	0		-0.28024322509765626	5.93886865234375	0		
-0.001263476014137268	8.252670168876648E-4	0		0.5361773681640625	-2.3558115234375	0		-1.0257255859375	0.300782470703125	0		-0.5929760131835937	-2.614294921875	0		2.003484375	-0.2883650817871094	0		3.567238037109375	0.005368393898010254	0		4.82855712890625	0.14478330993652344	0		5.872033203125	0.33938336181640627	0		-0.14867340087890624	5.9598359375	0		
-0.0010010050535202027	8.405470252037049E-4	0		0.4828965148925781	-2.326957275390625	0		-1.0295267333984375	0.296853759765625	0		-0.5926967163085938	-2.614283447265625	0		1.987657470703125	-0.29408758544921876	0		3.543534423828125	0.007779272079467774	0		4.828818359375	0.14482974243164062	0		5.868544921875	0.3223122253417969	0		-0.16261854553222657	5.94906884765625	0		
-0.003768996000289917	-0.0020897459983825685	0		0.5128369750976562	-2.350392822265625	0		-1.099180908203125	0.30195266723632813	0		-0.6253111572265625	-2.608754638671875	0		1.9938291015625	-0.3011375732421875	0		3.54459521484375	-0.0061769351959228514	0		4.80809814453125	0.1452260284423828	0		5.87242041015625	0.33961578369140627	0		-0.31267572021484374	5.9324208984375	0		
0.011600536346435547	0.0027059829235076905	0		0.5011776733398438	-2.349171142578125	0		-1.0789244384765626	0.2996576843261719	0		-0.6060018920898438	-2.6100283203125	0		1.984158935546875	-0.2989281921386719	0		3.55307421875	0.005771824836730957	0		4.8083896484375	0.1453164520263672	0		5.8762958984375	0.35523056030273437	0		-0.3124576721191406	5.9324462890625	0		
0.008862981796264649	-2.1291500329971314E-4	0		0.4910040283203125	-2.317962646484375	0		-1.093525634765625	0.30590692138671877	0		-0.616512451171875	-2.600833984375	0		1.968381103515625	-0.3046150207519531	0		3.511124267578125	-0.01048670482635498	0		4.79972802734375	0.14756350708007812	0		5.87651708984375	0.35544659423828123	0		-0.29430422973632814	5.92819677734375	0		
2.009660005569458E-4	9.641299843788147E-4	0		0.48933633422851563	-2.319885009765625	0		-1.0242799072265625	0.30085748291015624	0		-0.5832257080078125	-2.606317626953125	0		1.9436490478515625	-0.308154541015625	0		3.511446044921875	-0.01038599681854248	0		4.7928466796875	0.1347972412109375	0		5.8730810546875	0.34026129150390627	0		-0.16174899291992187	5.94918359375	0		
5.315979719161988E-4	0.0010038729906082153	0		0.48971502685546875	-2.319835205078125	0		-1.1020079345703124	0.29808218383789065	0		-0.6198211669921875	-2.60471826171875	0		1.927895263671875	-0.3138265075683594	0		3.504453125	-0.03116279411315918	0		4.7870517578125	0.12702999114990235	0		5.8769833984375	0.3559764404296875	0		-0.3090186767578125	5.91949609375	0		
-0.002178823947906494	-0.0019094150066375733	0		0.4901053161621094	-2.319783447265625	0		-1.027688232421875	0.2969541015625	0		-0.6153629150390625	-2.6007548828125	0		1.9211002197265625	-0.32263186645507813	0		3.4948212890625	-0.028885990142822265	0		4.78250830078125	0.1352591552734375	0		5.8772236328125	0.3562872619628906	0		-0.2936856384277344	5.9282958984375	0		
0.0012031179666519166	0.0010824999809265136	0		0.4686136169433594	-2.312393798828125	0		-1.0972901611328125	0.30204330444335936	0		-0.6108964233398437	-2.596794921875	0		1.90841552734375	-0.3243415832519531	0		3.486035888671875	-0.03661466217041016	0		4.76875	0.12964161682128905	0		5.87746484375	0.35662692260742185	0		-0.27932440185546875	5.94010986328125	0		
0.0064576840400695805	-0.003958388090133667	0		0.520932373046875	-2.318143310546875	0		-1.0229760131835937	0.30090765380859374	0		-0.610486083984375	-2.596778076171875	0		1.8877752685546876	-0.3229258728027344	0		3.501367431640625	-0.036704856872558596	0		4.764970703125	0.12288308715820312	0		5.8770224609375	0.3622128601074219	0		-0.14684870910644532	5.9601044921875	0		
0.006781025886535645	-0.003927359104156494	0		0.4673866577148437	-2.3142666015625	0		-1.1007152099609374	0.2981010131835938	0		-0.6199201049804688	-2.58661572265625	0		1.91198388671875	-0.3311982727050781	0		3.493355224609375	-0.058429882049560546	0		4.75119921875	0.11729112243652344	0		5.885779296875	0.35710577392578124	0		-0.1608948974609375	5.94934619140625	0		
0.002166599988937378	0.0011742680072784424	0		0.519698974609375	-2.32001904296875	0		-1.0304874267578126	0.2930142822265625	0		-0.6205454711914062	-2.588597900390625	0		1.8903223876953126	-0.3297646789550781	0		3.480621337890625	-0.061074363708496095	0		4.74430517578125	0.10460305786132812	0		5.87815673828125	0.35782513427734375	0		-0.2951150207519531	5.9304189453125	0		
0.007375714778900147	-0.0038815789222717287	0		0.4432396240234375	-2.308803955078125	0		-1.1001439208984376	0.2980609741210937	0		-0.6062183837890625	-2.592816162109375	0		1.8775926513671874	-0.33147042846679686	0		3.455805908203125	-0.0675326156616211	0		4.728466796875	0.09705816650390625	0		5.87836279296875	0.3582698669433594	0		-0.29309735107421875	5.92839697265625	0		
0.007631062030792236	-0.0038668060302734374	0		0.5026149291992188	-2.30766943359375	0		-1.0958406982421875	0.30196810913085936	0		-0.5977339477539062	-2.58494970703125	0		1.834821044921875	-0.33372250366210937	0		3.495998291015625	-0.07198223876953125	0		4.7359150390625	0.1101621551513672	0		5.88639111328125	0.3584332580566406	0		-0.29686105346679686	5.9434580078125	0		
0.010027246475219726	0.008111626625061034	0		0.4769613037109375	-2.30524365234375	0		-1.0996998291015625	0.29799212646484374	0		-0.6082863159179688	-2.576799560546875	0		1.8630006103515624	-0.33705868530273436	0		3.452190185546875	-0.07315425109863281	0		4.7240498046875	0.105557861328125	0		5.87684228515625	0.4042329711914063	0		-0.2941147766113281	5.9294111328125	0		
0.00800623893737793	-0.003850178003311157	0		0.4991144714355469	-2.312548828125	0		-1.0396044921875	0.29404220581054685	0		-0.6080128173828125	-2.576820068359375	0		1.8501473388671874	-0.3387740478515625	0		3.4500517578125	-0.09296450042724609	0		4.716025390625	0.09389317321777343	0		5.8732841796875	0.38752456665039064	0		-0.2942134704589844	5.929404296875	0		
-0.06886031341552734	-6.848719716072083E-4	0		0.47336038208007813	-2.309131591796875	0		-1.1185595703125	0.29219143676757814	0		-0.6186661987304688	-2.56767919921875	0		1.8292742919921876	-0.3373714904785156	0		3.44104541015625	-0.099670654296875	0		4.70611669921875	0.09425789642333984	0		5.86969091796875	0.37254937744140626	0		-0.1610672607421875	5.949384765625	0		
0.003194188117980957	0.0012287900447845459	0		0.501465087890625	-2.310530517578125	0		-1.11263134765625	0.2870512084960937	0		-0.6745101318359376	-2.5658642578125	0		1.826247314453125	-0.3412418212890625	0		3.45605078125	-0.10073858642578125	0		4.7110087890625	0.08639898681640625	0		5.88189306640625	0.382953369140625	0		-0.27947360229492185	5.940154296875	0		
-0.06890581512451172	-6.918960213661194E-4	0		0.4775870056152344	-2.30514892578125	0		-1.1127076416015624	0.28699832153320315	0		-0.5984475708007813	-2.566037109375	0		1.8262001953125	-0.34115826416015627	0		3.441009033203125	-0.09935446166992187	0		4.71094189453125	0.08661648559570312	0		5.8841171875	0.4041070556640625	0		-0.31389862060546875	5.93465087890625	0		
